<svg width="20" height="17" viewBox="0 0 20 17" fill="none" xmlns="http://www.w3.org/2000/svg">
<path d="M9.97261 8.29627C11.1512 7.62167 11.9565 6.36559 11.9565 4.91305C11.9565 2.7554 10.2011 1 8.04347 1C5.88582 1 4.13042 2.7554 4.13042 4.91305C4.13042 6.36559 4.93572 7.62167 6.11433 8.29627C3.16627 9.07028 1 11.5629 1 14.5172V15.4783C1 15.6943 1.17532 15.8696 1.39132 15.8696C1.60732 15.8696 1.78263 15.6943 1.78263 15.4783V14.5172C1.7826 11.3798 4.5914 8.82611 8.04347 8.82611C11.4955 8.82611 14.3043 11.3798 14.3043 14.5172V15.4783C14.3043 15.6943 14.4797 15.8696 14.6957 15.8696C14.9117 15.8696 15.087 15.6943 15.087 15.4783V14.5172C15.0869 11.5629 12.9207 9.06951 9.97261 8.29627ZM4.91305 4.91305C4.91305 3.18663 6.31705 1.78263 8.04347 1.78263C9.76989 1.78263 11.1739 3.18663 11.1739 4.91305C11.1739 6.63947 9.76989 8.04347 8.04347 8.04347C6.31705 8.04347 4.91305 6.63951 4.91305 4.91305Z" fill="black" stroke="black" stroke-width="0.282353"/>
<path d="M15.242 8.30663C16.0903 7.7455 16.6522 6.78601 16.6522 5.69585C16.6522 3.96943 15.2482 2.56543 13.5218 2.56543C13.3058 2.56543 13.1305 2.74075 13.1305 2.95675C13.1305 3.17275 13.3058 3.34806 13.5218 3.34806C14.8162 3.34806 15.8696 4.40146 15.8696 5.69589C15.8696 6.99031 14.8162 8.04371 13.5218 8.04371C13.3058 8.04371 13.1305 8.21903 13.1305 8.43503C13.1305 8.65103 13.3058 8.82627 13.5218 8.82627C16.1114 8.82627 18.2174 10.7726 18.2174 13.1658V13.9132C18.2174 14.1292 18.3927 14.3045 18.6087 14.3045C18.8247 14.3045 19.0001 14.1292 19.0001 13.9132V13.1658C19.0001 10.9041 17.4223 8.9828 15.242 8.30663Z" fill="black" stroke="black" stroke-width="0.282353"/>
</svg>
