<svg width="10" height="16" viewBox="0 0 10 16" fill="none" xmlns="http://www.w3.org/2000/svg">
<path fill-rule="evenodd" clip-rule="evenodd" d="M1 2.21739C1 1.54539 1.54478 1 2.21739 1H7.69565C8.36826 1 8.91304 1.54539 8.91304 2.21739V13.7826C8.91304 14.4552 8.36826 15 7.69565 15H2.21739C1.54478 15 1 14.4552 1 13.7826V2.21739Z" stroke="#2D70BA" stroke-width="0.758333" stroke-linecap="round" stroke-linejoin="round"/>
<path d="M1 3.61133H8.91304" stroke="#2D70BA" stroke-width="0.758333" stroke-linecap="round" stroke-linejoin="round"/>
<path d="M1 12.3613H8.91304" stroke="#2D70BA" stroke-width="0.758333" stroke-linecap="round" stroke-linejoin="round"/>
<path d="M6.47828 13.7822H3.4348" stroke="#2D70BA" stroke-width="0.583333" stroke-linecap="round" stroke-linejoin="round"/>
<path fill-rule="evenodd" clip-rule="evenodd" d="M4.95652 1.91309C5.12452 1.91309 5.26087 2.04943 5.26087 2.21743C5.26087 2.38543 5.12452 2.52178 4.95652 2.52178C4.78852 2.52178 4.65218 2.38543 4.65218 2.21743C4.65218 2.04943 4.78852 1.91309 4.95652 1.91309Z" stroke="#2D70BA" stroke-width="0.583333" stroke-linejoin="round"/>
</svg>
